<?xml version="1.0" encoding="UTF-8" standalone="no"?>
<svg width="93px" height="93px" viewBox="0 0 93 93" version="1.1" xmlns="http://www.w3.org/2000/svg" xmlns:xlink="http://www.w3.org/1999/xlink" xmlns:sketch="http://www.bohemiancoding.com/sketch/ns">
    <!-- Generator: Sketch 3.2.2 (9983) - http://www.bohemiancoding.com/sketch -->
    <title>chrome</title>
    <desc>Created with Sketch.</desc>
    <defs></defs>
    <g id="Page-1" stroke="none" stroke-width="1" fill="none" fill-rule="evenodd" sketch:type="MSPage">
        <g id="Artboard-1" sketch:type="MSArtboardGroup" transform="translate(-217.000000, -1217.000000)" fill="#333333">
            <g id="noun_38318_cc" sketch:type="MSLayerGroup" transform="translate(217.000000, 1217.000000)">
                <g id="chrome" sketch:type="MSShapeGroup">
                    <path d="M46.761,92.159 C43.879,92.159 40.97,91.884 38.116,91.341 C26.055,89.044 15.611,82.188 8.706,72.036 C1.801,61.884 -0.736,49.65 1.561,37.59 C5.683,15.935 24.651,0.216 46.663,0.216 C49.545,0.216 52.455,0.491 55.309,1.035 C67.37,3.332 77.815,10.187 84.72,20.339 C91.625,30.491 94.161,42.724 91.865,54.784 C87.743,76.44 68.774,92.159 46.761,92.159 L46.761,92.159 Z M46.663,5.216 C27.049,5.216 10.147,19.224 6.474,38.525 C4.427,49.274 6.688,60.175 12.842,69.223 C18.995,78.271 28.304,84.381 39.053,86.428 C41.599,86.913 44.194,87.158 46.762,87.158 C66.378,87.158 83.28,73.149 86.953,53.847 C89,43.1 86.738,32.198 80.585,23.151 C74.432,14.104 65.123,7.994 54.373,5.947 C51.826,5.462 49.231,5.216 46.663,5.216 L46.663,5.216 Z" id="Shape"></path>
                    <path d="M31.81,53.44 C31.752,53.44 31.694,53.438 31.636,53.434 C18.898,52.557 4.27,40.494 5.208,26.832 C5.303,25.455 6.486,24.417 7.874,24.509 C9.251,24.604 10.291,25.797 10.197,27.175 C9.589,36.033 19.52,47.589 31.98,48.447 C33.357,48.542 34.397,49.736 34.302,51.113 C34.211,52.432 33.113,53.44 31.81,53.44 L31.81,53.44 Z" id="Shape"></path>
                    <path d="M38.582,91.386 C37.465,91.386 36.448,90.632 36.161,89.5 C35.821,88.162 36.63,86.802 37.969,86.462 C48.159,83.874 55.872,70.712 53.252,60.382 C52.912,59.044 53.722,57.684 55.061,57.345 C56.399,57.004 57.758,57.815 58.098,59.154 C61.389,72.124 52.028,88.051 39.2,91.308 C38.993,91.36 38.786,91.386 38.582,91.386 L38.582,91.386 Z" id="Shape"></path>
                    <path d="M49.824,33.064 C49.367,33.064 48.905,32.939 48.49,32.677 C47.323,31.939 46.975,30.395 47.713,29.228 C51.32,23.523 58.083,19.161 65.805,17.558 C72.843,16.098 79.697,17.178 84.61,20.524 C85.751,21.301 86.047,22.856 85.269,23.998 C84.493,25.14 82.937,25.435 81.795,24.657 C77.996,22.07 72.536,21.268 66.821,22.454 C60.399,23.787 54.836,27.318 51.939,31.9 C51.464,32.652 50.652,33.064 49.824,33.064 L49.824,33.064 Z" id="Shape"></path>
                    <path d="M46.695,63.127 C45.644,63.127 44.583,63.027 43.543,62.829 C34.46,61.099 28.478,52.302 30.206,43.22 C31.713,35.319 38.635,29.585 46.665,29.585 C47.716,29.585 48.777,29.686 49.818,29.883 C54.217,30.72 58.028,33.221 60.547,36.925 C63.066,40.629 63.992,45.092 63.154,49.493 C61.65,57.394 54.729,63.127 46.695,63.127 L46.695,63.127 Z M46.666,34.584 C41.033,34.584 36.176,38.609 35.119,44.155 C33.906,50.529 38.105,56.703 44.479,57.917 C45.211,58.057 45.958,58.127 46.696,58.127 C52.332,58.127 57.187,54.103 58.243,48.558 C58.831,45.47 58.181,42.337 56.414,39.737 C54.645,37.138 51.972,35.383 48.884,34.795 C48.15,34.655 47.404,34.584 46.666,34.584 L46.666,34.584 Z" id="Shape"></path>
                </g>
            </g>
        </g>
    </g>
</svg>