<?xml version="1.0" encoding="UTF-8" standalone="no"?>
<svg width="101px" height="59px" viewBox="0 0 101 59" version="1.1" xmlns="http://www.w3.org/2000/svg" xmlns:xlink="http://www.w3.org/1999/xlink" xmlns:sketch="http://www.bohemiancoding.com/sketch/ns">
    <!-- Generator: Sketch 3.2.2 (9983) - http://www.bohemiancoding.com/sketch -->
    <title>data-channels</title>
    <desc>Created with Sketch.</desc>
    <defs></defs>
    <g id="Page-1" stroke="none" stroke-width="1" fill="none" fill-rule="evenodd" sketch:type="MSPage">
        <g id="Artboard-1" sketch:type="MSArtboardGroup" transform="translate(-53.000000, -708.000000)" fill="#777777">
            <g id="data-channels" sketch:type="MSLayerGroup" transform="translate(53.000000, 708.000000)">
                <path d="M96.897,18.513 C98.818,18.513 100.375,16.955 100.375,15.034 C100.375,13.114 98.818,11.556 96.897,11.556 C94.976,11.556 93.419,13.114 93.419,15.034 C93.419,15.456 93.498,15.859 93.636,16.234 L83.483,24.883 L70.619,17.316 C70.692,17.019 70.735,16.709 70.735,16.389 C70.735,14.247 68.999,12.511 66.857,12.511 C65.988,12.511 65.189,12.8 64.543,13.283 L52.92,4.054 C52.974,3.834 53.006,3.606 53.006,3.37 C53.006,1.789 51.725,0.509 50.145,0.509 C48.565,0.509 47.284,1.79 47.284,3.37 C47.284,4.099 47.559,4.763 48.008,5.268 L42.173,17.756 C41.913,17.711 41.647,17.682 41.373,17.682 C40.513,17.682 39.711,17.921 39.022,18.329 L23.584,11.414 C23.62,11.189 23.644,10.96 23.644,10.725 C23.644,8.345 21.715,6.416 19.335,6.416 C16.956,6.416 15.026,8.345 15.026,10.725 C15.026,13.105 16.955,15.034 19.335,15.034 C20.687,15.034 21.891,14.411 22.681,13.438 L37.363,20.014 C36.979,20.688 36.756,21.466 36.756,22.298 C36.756,23.15 37.049,23.903 37.45,24.588 L29.217,32.825 C28.081,32.014 26.711,31.531 25.214,31.531 C22.572,31.531 20.299,33.032 19.132,35.215 L19.036,35.183 C19.035,35.195 19.032,35.206 19.031,35.218 L7.553,30.002 C7.569,29.868 7.578,29.731 7.578,29.593 C7.578,27.604 5.966,25.992 3.977,25.992 C1.988,25.992 0.376,27.604 0.376,29.593 C0.376,31.582 1.988,33.194 3.977,33.194 C5.031,33.194 5.976,32.739 6.634,32.017 L18.357,37.346 C18.352,37.359 18.348,37.371 18.342,37.383 L18.398,37.402 C18.344,37.75 18.29,38.096 18.29,38.457 C18.29,40.411 19.103,42.173 20.405,43.432 L20.388,43.445 C20.392,43.45 20.396,43.455 20.4,43.459 L14.427,52.261 C14.272,52.234 14.113,52.217 13.949,52.217 C12.47,52.217 11.271,53.415 11.271,54.895 C11.271,56.374 12.47,57.573 13.949,57.573 C15.428,57.573 16.627,56.374 16.627,54.895 C16.627,54.394 16.487,53.926 16.247,53.525 L21.611,45.621 L22.321,44.744 C23.202,45.151 24.18,45.385 25.215,45.385 C27.117,45.385 28.844,44.614 30.098,43.369 L37.091,48.36 C36.892,48.874 36.757,49.42 36.757,50.001 C36.757,52.549 38.822,54.618 41.374,54.618 C43.533,54.618 45.339,53.135 45.845,51.136 L61.761,46.213 C62.738,48.028 64.654,49.263 66.86,49.263 C68.133,49.263 69.307,48.846 70.263,48.149 L77.383,54.76 C77.345,54.953 77.324,55.153 77.324,55.357 C77.324,57.091 78.73,58.497 80.464,58.497 C82.198,58.497 83.603,57.092 83.603,55.357 C83.603,53.624 82.198,52.218 80.464,52.218 C79.757,52.218 79.106,52.454 78.581,52.849 L71.77,46.526 C72.322,45.639 72.663,44.596 72.663,43.476 C72.663,40.661 71.002,38.316 68.002,37.799 L68.002,20.104 C69.002,19.932 69.084,19.626 69.515,19.226 L82.847,27.074 L94.026,42.729 C93.934,42.959 93.88,43.21 93.88,43.474 C93.88,44.599 94.79,45.511 95.915,45.511 C97.04,45.511 97.952,44.599 97.952,43.474 C97.952,42.349 97.039,41.437 95.914,41.437 C95.884,41.437 95.854,41.44 95.824,41.442 L85.094,26.422 L95.025,17.963 C95.565,18.31 96.207,18.513 96.897,18.513 L96.897,18.513 Z M61.07,43.474 C61.07,43.684 61.083,43.89 61.105,44.094 L45.83,48.818 C45.308,46.843 43.514,45.383 41.372,45.383 C40.249,45.383 39.258,45.834 38.459,46.496 L31.421,41.474 C31.868,40.554 32.138,39.544 32.138,38.457 C32.138,36.965 31.651,35.586 30.848,34.458 L39.081,26.221 C39.767,26.622 40.519,26.915 41.372,26.915 C43.014,26.915 44.451,26.058 45.269,24.768 L62.491,39.682 C61.609,40.699 61.07,42.022 61.07,43.474 L61.07,43.474 Z M66,37.797 C65,37.897 64.865,38.07 64.404,38.299 L46.044,22.453 C46.046,22.401 46.021,22.351 46.021,22.299 C46.021,20.814 45.303,19.497 44.215,18.653 L50.014,6.225 C50.06,6.227 50.102,6.232 50.148,6.232 C50.678,6.232 51.171,6.085 51.597,5.833 L63.218,15.062 C63.067,15.477 63.105,15.923 63.105,16.39 C63.105,18.147 64,19.628 66,20.105 L66,37.797 L66,37.797 Z" id="Shape" sketch:type="MSShapeGroup"></path>
            </g>
        </g>
    </g>
</svg>