<?xml version="1.0" encoding="UTF-8" standalone="no"?>
<svg width="91px" height="92px" viewBox="0 0 91 92" version="1.1" xmlns="http://www.w3.org/2000/svg" xmlns:xlink="http://www.w3.org/1999/xlink" xmlns:sketch="http://www.bohemiancoding.com/sketch/ns">
    <!-- Generator: Sketch 3.2.2 (9983) - http://www.bohemiancoding.com/sketch -->
    <title>group</title>
    <desc>Created with Sketch.</desc>
    <defs></defs>
    <g id="Page-1" stroke="none" stroke-width="1" fill="none" fill-rule="evenodd" sketch:type="MSPage">
        <g id="Artboard-1" sketch:type="MSArtboardGroup" transform="translate(-226.000000, -781.000000)" fill="#777777">
            <g id="group" sketch:type="MSLayerGroup" transform="translate(226.000000, 781.000000)">
                <path d="M59.1,81.7 C60.4,79.3 61.1,76.6 61.1,73.8 C61.1,64.5 53.5,56.9 44.2,56.9 C34.9,56.9 27.3,64.5 27.3,73.8 C27.3,76.7 28,79.4 29.3,81.8 C27.9,81.5 26.3,81.9 25.2,83.1 C23.4,84.9 23.1,91.9 23.1,91.9 C23.1,91.9 30,91.4 31.7,89.6 C32.5,88.8 33,87.7 33,86.5 C36,89.1 39.9,90.7 44.2,90.7 C48.3,90.7 52.1,89.2 55.1,86.7 C55.2,87.7 55.6,88.7 56.4,89.5 C58.2,91.3 65,91.8 65,91.8 C65,91.8 64.6,84.8 62.9,83 C61.9,82 60.5,81.6 59.1,81.7 L59.1,81.7 Z M44.2,86.2 C37.4,86.2 31.8,80.7 31.8,73.8 L31.8,73 C35,72.4 41.3,70.6 44,65 C46.8,70.7 53.5,72.5 56.5,73 L56.5,73.8 C56.6,80.6 51,86.2 44.2,86.2 L44.2,86.2 Z M47.7,70.8 C46.4,70.8 45.3,71.9 45.3,73.2 C45.3,74.5 46.4,75.6 47.7,75.6 C49,75.6 50.1,74.5 50.1,73.2 C50.1,71.9 49.1,70.8 47.7,70.8 L47.7,70.8 Z M40.3,70.8 C39,70.8 37.9,71.9 37.9,73.2 C37.9,74.5 39,75.6 40.3,75.6 C41.6,75.6 42.7,74.5 42.7,73.2 C42.7,71.9 41.6,70.8 40.3,70.8 L40.3,70.8 Z M74.4,43.6 C73.1,43.6 72,44.7 72,46 C72,47.3 73.1,48.4 74.4,48.4 C75.7,48.4 76.8,47.3 76.8,46 C76.8,44.6 75.7,43.6 74.4,43.6 L74.4,43.6 Z M88,50.5 C87.8,50.2 87.5,49.9 87.2,49.7 C87.4,48.7 87.5,47.7 87.5,46.6 C87.5,37.3 79.9,29.7 70.6,29.7 C61.3,29.7 53.7,37.3 53.7,46.6 C53.7,55.9 61.3,63.5 70.6,63.5 C73.9,63.5 76.9,62.6 79.5,61 C83.4,63 90,64 90,64 C90,64 90.4,53.4 88,50.5 L88,50.5 Z M70.6,58.9 C63.8,58.9 58.2,53.4 58.2,46.5 C58.2,41 61.8,36.4 66.7,34.8 C69.5,43.9 79.5,44.4 82.8,44.3 C82.9,45 83,45.8 83,46.5 C83,53.4 77.4,58.9 70.6,58.9 L70.6,58.9 Z M67,43.6 C65.7,43.6 64.6,44.7 64.6,46 C64.6,47.3 65.7,48.4 67,48.4 C68.3,48.4 69.4,47.3 69.4,46 C69.4,44.6 68.3,43.6 67,43.6 L67,43.6 Z M40.3,23.1 C41.6,23.1 42.7,22 42.7,20.7 C42.7,19.4 41.6,18.3 40.3,18.3 C39,18.3 38,19.4 38,20.7 C38,22 39,23.1 40.3,23.1 L40.3,23.1 Z M47.7,23.1 C49,23.1 50.1,22 50.1,20.7 C50.1,19.4 49,18.3 47.7,18.3 C46.4,18.3 45.3,19.4 45.3,20.7 C45.4,22 46.4,23.1 47.7,23.1 L47.7,23.1 Z M43.9,38.2 C53.2,38.2 60.8,30.6 60.8,21.3 C60.8,14.5 56.8,8.6 51,6 C52.1,2.9 52.2,0.2 52.2,0.2 C50.2,0.5 48.6,1.1 47.1,1.8 C47.2,1.2 47.2,0.9 47.2,0.9 C42.9,1.6 40,3.4 38,5.5 C31.6,7.9 27,14.1 27,21.3 C27,30.6 34.6,38.2 43.9,38.2 L43.9,38.2 Z M43.9,8.9 C50.7,8.9 56.3,14.4 56.3,21.3 C56.3,26 53.7,30.1 49.8,32.2 L49.8,32 C49.8,28.7 47.1,26.1 43.9,26.1 C40.7,26.1 38,28.7 38,32 L38,32.2 C34.2,30.1 31.5,26 31.5,21.3 C31.5,14.5 37.1,8.9 43.9,8.9 L43.9,8.9 Z M20.5,43 C19.2,43 18.1,44.1 18.1,45.4 C18.1,46.7 19.2,47.8 20.5,47.8 C21.8,47.8 22.9,46.7 22.9,45.4 C22.8,44 21.8,43 20.5,43 L20.5,43 Z M33.8,45.9 C33.8,36.6 26.2,29 16.9,29 C7.6,29 0,36.6 0,45.9 C0,55.2 7.6,62.8 16.9,62.8 C26.2,62.8 33.8,55.3 33.8,45.9 L33.8,45.9 Z M16.9,58.3 C10.1,58.3 4.5,52.8 4.5,45.9 L4.5,45.3 C5.9,45.2 8.2,45 10.9,44.3 C10.8,44.6 10.7,45 10.7,45.3 C10.7,46.6 11.8,47.7 13.1,47.7 C14.4,47.7 15.5,46.6 15.5,45.3 C15.5,44.4 15,43.7 14.3,43.3 C17.9,42 21.8,39.8 24.6,36.2 C27.5,38.5 29.3,42 29.3,45.9 C29.3,52.8 23.7,58.3 16.9,58.3 L16.9,58.3 Z" id="Shape" sketch:type="MSShapeGroup"></path>
            </g>
        </g>
    </g>
</svg>