<?xml version="1.0" encoding="UTF-8" standalone="no"?>
<svg width="18px" height="18px" viewBox="0 0 18 18" version="1.1" xmlns="http://www.w3.org/2000/svg" xmlns:xlink="http://www.w3.org/1999/xlink" xmlns:sketch="http://www.bohemiancoding.com/sketch/ns">
    <!-- Generator: Sketch 3.2.2 (9983) - http://www.bohemiancoding.com/sketch -->
    <title>lock</title>
    <desc>Created with Sketch.</desc>
    <defs></defs>
    <g id="Page-1" stroke="none" stroke-width="1" fill="none" fill-rule="evenodd" sketch:type="MSPage">
        <g id="Artboard-1" sketch:type="MSArtboardGroup" transform="translate(-20.000000, -8.000000)">
            <g id="lock" sketch:type="MSLayerGroup" transform="translate(20.000000, 8.000000)">
                <rect id="Rectangle-37" fill="#FFFFFF" sketch:type="MSShapeGroup" x="0" y="0" width="18" height="17.1428571"></rect>
                <path d="M15.3189407,17.1428571 L2.68127536,17.1428571 C2.23075589,17.1428571 1.86580271,16.8111131 1.86580271,16.4013926 L1.86580271,8.9156449 C1.86580271,8.50631718 2.23075589,8.17457317 2.68127536,8.17457317 L3.49653194,8.17457317 L3.49653194,5.00267615 C3.49653194,2.23991044 5.96045209,0 9.00021607,0 C12.0393318,0 14.5036841,2.23971402 14.5036841,5.00267615 L14.5036841,8.17457317 L15.3189407,8.17457317 C15.7692441,8.17457317 16.1341973,8.50631718 16.1341973,8.9156449 L16.1341973,16.4011962 C16.1344134,16.8111131 15.7692441,17.1428571 15.3189407,17.1428571 L15.3189407,17.1428571 Z M11.9131432,5.15077265 C11.9131432,3.68846703 10.6086894,2.5031058 9.00021607,2.5031058 C7.39131057,2.5031058 6.08728898,3.68846703 6.08728898,5.15077265 L6.08728898,8.17457317 L11.9133592,8.17457317 L11.9133592,5.15077265 L11.9131432,5.15077265 Z" id="Shape-2" fill="#387AD9" sketch:type="MSShapeGroup"></path>
            </g>
        </g>
    </g>
</svg>