<?xml version="1.0" encoding="UTF-8" standalone="no"?>
<svg width="127px" height="151px" viewBox="0 0 127 151" version="1.1" xmlns="http://www.w3.org/2000/svg" xmlns:xlink="http://www.w3.org/1999/xlink" xmlns:sketch="http://www.bohemiancoding.com/sketch/ns">
    <!-- Generator: Sketch 3.2.2 (9983) - http://www.bohemiancoding.com/sketch -->
    <title>setup</title>
    <desc>Created with Sketch.</desc>
    <defs></defs>
    <g id="Page-1" stroke="none" stroke-width="1" fill="none" fill-rule="evenodd" sketch:type="MSPage">
        <g id="Artboard-1" sketch:type="MSArtboardGroup" transform="translate(-244.000000, -1031.000000)" fill="#777777">
            <g id="setup" sketch:type="MSLayerGroup" transform="translate(244.000000, 1031.000000)">
                <path d="M15.1190476,151 C6.78240476,151 0,144.22614 0,135.9 C0,127.57386 6.78240476,120.8 15.1190476,120.8 C23.4556905,120.8 30.2380952,127.57386 30.2380952,135.9 C30.2380952,144.22614 23.4556905,151 15.1190476,151 L15.1190476,151 Z M15.1190476,126.84 C10.1172887,126.84 6.04761905,130.904542 6.04761905,135.9 C6.04761905,140.895457 10.1172887,144.96 15.1190476,144.96 C20.1208065,144.96 24.1904762,140.895457 24.1904762,135.9 C24.1904762,130.904542 20.1208065,126.84 15.1190476,126.84 L15.1190476,126.84 Z" id="Shape" sketch:type="MSShapeGroup"></path>
                <path d="M111.880952,30.2 C103.54431,30.2 96.7619048,23.42614 96.7619048,15.1 C96.7619048,6.77386 103.54431,0 111.880952,0 C120.217595,0 127,6.77386 127,15.1 C127,23.42614 120.217595,30.2 111.880952,30.2 L111.880952,30.2 Z M111.880952,6.04 C106.879193,6.04 102.809524,10.1045425 102.809524,15.1 C102.809524,20.0954575 106.879193,24.16 111.880952,24.16 C116.882711,24.16 120.952381,20.0954575 120.952381,15.1 C120.952381,10.1045425 116.882711,6.04 111.880952,6.04 L111.880952,6.04 Z" id="Shape" sketch:type="MSShapeGroup"></path>
                <path d="M63.5,90.6 C55.1633571,90.6 48.3809524,83.82614 48.3809524,75.5 C48.3809524,67.17386 55.1633571,60.4 63.5,60.4 C71.8366429,60.4 78.6190476,67.17386 78.6190476,75.5 C78.6190476,83.82614 71.8366429,90.6 63.5,90.6 L63.5,90.6 Z M63.5,66.44 C58.4982411,66.44 54.4285714,70.5045425 54.4285714,75.5 C54.4285714,80.4954575 58.4982411,84.56 63.5,84.56 C68.5017589,84.56 72.5714286,80.4954575 72.5714286,75.5 C72.5714286,70.5045425 68.5017589,66.44 63.5,66.44 L63.5,66.44 Z" id="Shape" sketch:type="MSShapeGroup"></path>
                <rect id="Rectangle-path" sketch:type="MSShapeGroup" x="12.0952381" y="3.02" width="6.04761905" height="108.72"></rect>
                <rect id="Rectangle-path" sketch:type="MSShapeGroup" x="60.4761905" y="3.02" width="6.04761905" height="48.32"></rect>
                <rect id="Rectangle-path" sketch:type="MSShapeGroup" x="60.4761905" y="99.66" width="6.04761905" height="48.32"></rect>
                <rect id="Rectangle-path" sketch:type="MSShapeGroup" x="108.857143" y="39.26" width="6.04761905" height="108.72"></rect>
            </g>
        </g>
    </g>
</svg>